<?xml version="1.0" standalone="no"?>
<!DOCTYPE svg PUBLIC "-//W3C//DTD SVG 20010904//EN"
 "http://www.w3.org/TR/2001/REC-SVG-20010904/DTD/svg10.dtd">
<svg version="1.0" xmlns="http://www.w3.org/2000/svg"
 width="812.000000pt" height="812.000000pt" viewBox="0 0 812.000000 812.000000"
 preserveAspectRatio="xMidYMid meet">
<metadata>
Created by potrace 1.14, written by Peter Selinger 2001-2017
</metadata>
<g transform="translate(0.000000,812.000000) scale(0.100000,-0.100000)"
fill="#000000" stroke="none">
<path d="M3798 6191 c-81 -26 -135 -61 -195 -124 l-52 -54 -53 13 c-284 74
-571 -190 -521 -480 28 -165 151 -309 297 -348 l46 -12 0 -53 c0 -44 -3 -53
-18 -53 -32 0 -85 -36 -104 -71 -24 -44 -23 -82 3 -134 l21 -42 -31 -51 c-71
-114 -111 -261 -111 -405 0 -84 0 -85 -34 -111 -40 -30 -86 -117 -86 -160 0
-65 21 -110 75 -163 l53 -52 -14 -48 c-21 -66 -21 -188 0 -237 41 -97 125
-156 223 -156 29 0 53 -2 53 -4 0 -3 -9 -20 -19 -38 -28 -49 -33 -88 -17 -140
l14 -46 -40 -39 c-51 -49 -92 -115 -120 -189 -22 -57 -23 -71 -23 -425 l0
-366 30 -49 c19 -30 49 -60 79 -79 l49 -30 416 -3 416 -3 -3 -39 c-7 -67 60
-111 119 -80 10 6 35 35 54 65 l35 55 102 0 c145 1 212 33 261 125 19 35 23
63 29 240 5 110 9 216 11 235 2 29 31 86 86 169 7 11 16 11 55 -4 87 -33 203
-8 270 60 17 17 78 105 136 195 103 163 105 166 105 226 0 50 -4 67 -25 93
-32 40 -361 248 -407 257 -38 7 -111 -16 -136 -44 -28 -31 -227 -354 -233
-378 l-6 -24 -28 20 c-25 17 -27 24 -22 68 2 26 0 64 -6 85 -10 36 -10 37 16
37 40 0 122 43 159 81 18 19 42 57 54 84 30 67 38 201 15 276 -12 41 -12 55
-3 58 7 2 33 25 58 50 52 54 75 118 64 178 -8 48 -49 119 -79 138 -22 15 -24
24 -29 143 -6 168 -43 284 -128 409 -28 40 -28 42 -13 79 10 23 13 50 9 71 -8
47 -59 101 -101 109 -34 6 -34 7 -34 60 0 46 3 54 19 54 41 0 160 71 210 125
233 256 94 658 -249 717 -57 10 -83 9 -142 -2 l-73 -15 -52 55 c-112 121 -285
169 -435 121z m282 -67 c120 -57 201 -166 218 -292 10 -70 14 -77 38 -68 14 5
16 15 10 60 -3 29 -13 72 -21 96 -11 31 -12 47 -5 54 7 7 54 11 113 11 95 0
107 -2 168 -32 80 -40 150 -111 187 -191 23 -49 27 -70 27 -152 0 -86 -3 -101
-32 -162 -50 -107 -151 -191 -253 -213 -54 -11 -60 -21 -60 -91 l0 -64 -550 0
-550 0 0 63 c0 67 -10 87 -46 87 -39 0 -160 69 -204 116 -23 25 -54 71 -68
102 -24 50 -27 69 -27 162 0 95 3 110 28 163 37 74 110 147 184 184 53 25 68
28 165 28 59 0 111 -4 117 -10 6 -7 3 -29 -9 -65 -11 -30 -19 -76 -20 -102 0
-40 3 -48 19 -48 15 0 20 10 26 58 17 147 117 271 258 322 83 31 203 24 287
-16z m509 -1120 c29 -37 27 -89 -4 -119 l-24 -25 -641 0 -641 0 -24 25 c-33
32 -34 89 -3 122 l21 23 648 0 648 0 20 -26z m-951 -327 c88 -42 106 -47 117
-36 11 12 11 23 -1 69 -15 60 -18 94 -6 88 150 -76 228 -96 405 -105 114 -6
117 -5 117 15 0 12 -9 26 -19 31 -22 12 -46 71 -29 71 6 0 38 -17 72 -37 209
-126 298 -221 332 -353 21 -84 15 -362 -11 -455 -85 -307 -361 -517 -680 -517
-271 0 -506 145 -625 387 -59 119 -71 177 -77 371 -5 140 -3 185 11 248 21 91
88 230 147 302 l42 52 51 -41 c28 -22 98 -62 154 -90z m-455 -534 c3 -71 13
-150 21 -177 l15 -48 -40 5 c-101 13 -177 101 -166 193 6 53 44 106 95 134 68
35 68 35 75 -107z m1565 108 c117 -60 136 -193 39 -278 -34 -30 -111 -62 -122
-51 -3 2 2 36 10 74 8 38 15 115 15 172 0 64 4 102 10 102 6 0 27 -9 48 -19z
m227 -771 c9 -15 -213 -360 -232 -360 -8 0 -13 6 -11 13 5 21 221 357 229 357
4 0 11 -5 14 -10z m-945 -107 c0 -22 -3 -23 -95 -23 -92 0 -95 1 -95 23 0 22
3 22 95 22 92 0 95 -1 95 -22z m1080 17 c0 -16 -221 -360 -230 -360 -26 0 -10
35 91 194 98 154 139 203 139 166z m128 -93 c-2 -8 -50 -89 -108 -180 -96
-152 -130 -192 -130 -153 0 25 211 346 227 346 8 0 13 -6 11 -13z m-541 -663
c9 -23 -32 -60 -96 -85 -77 -30 -79 -33 -56 -76 41 -75 12 -206 -61 -279 -58
-58 -188 -104 -295 -104 l-39 0 0 139 0 138 48 45 c95 89 202 148 365 203 116
39 125 41 134 19z m-1181 -186 c-10 -118 -14 -128 -43 -128 l-26 0 7 73 c12
127 15 137 43 137 l26 0 -7 -82z m100 -20 c-7 -86 -18 -128 -34 -128 -27 1
-30 18 -20 105 12 114 13 115 39 115 21 0 22 -2 15 -92z m109 67 c-3 -77 -19
-186 -30 -195 -29 -24 -37 0 -30 89 8 112 12 123 38 119 12 -2 22 -7 22 -13z
m100 -7 c2 -7 -1 -56 -8 -108 -11 -88 -14 -95 -36 -98 l-24 -4 7 79 c11 124
16 143 37 143 11 0 22 -6 24 -12z"/>
<path d="M3433 4473 c-22 -8 -15 -53 10 -63 24 -10 254 -40 304 -40 23 0 33 5
38 21 12 38 -13 48 -175 69 -166 21 -159 21 -177 13z"/>
<path d="M4262 4460 c-73 -10 -139 -21 -147 -24 -20 -7 -19 -55 1 -63 20 -7
312 26 337 39 20 10 22 39 5 56 -15 15 -27 14 -196 -8z"/>
<path d="M3560 4290 c-41 -41 -7 -120 52 -120 24 0 68 44 68 68 0 59 -79 93
-120 52z"/>
<path d="M4230 4290 c-29 -29 -26 -74 6 -99 35 -27 59 -26 89 4 46 45 19 115
-45 115 -17 0 -39 -9 -50 -20z"/>
<path d="M3934 4247 c-2 -7 7 -40 21 -75 30 -73 31 -92 8 -93 -10 0 -34 -1
-53 -2 -28 -2 -36 -7 -38 -24 -3 -19 3 -23 41 -28 58 -9 104 2 118 26 19 36
-44 209 -77 209 -8 0 -17 -6 -20 -13z"/>
<path d="M3720 3925 c-27 -33 67 -123 155 -146 50 -14 152 -6 230 18 47 15 61
23 63 41 4 27 -3 27 -103 2 -139 -36 -205 -24 -278 51 -26 27 -49 49 -51 49
-2 0 -9 -7 -16 -15z"/>
</g>
</svg>
