<?xml version="1.0" standalone="no"?>
<!DOCTYPE svg PUBLIC "-//W3C//DTD SVG 20010904//EN"
 "http://www.w3.org/TR/2001/REC-SVG-20010904/DTD/svg10.dtd">
<svg version="1.0" xmlns="http://www.w3.org/2000/svg"
 width="812.000000pt" height="812.000000pt" viewBox="0 0 812.000000 812.000000"
 preserveAspectRatio="xMidYMid meet">
<metadata>
Created by potrace 1.14, written by Peter Selinger 2001-2017
</metadata>
<g transform="translate(0.000000,812.000000) scale(0.100000,-0.100000)"
fill="#000000" stroke="none">
<path d="M3805 6191 c-82 -23 -145 -63 -203 -126 l-49 -53 -54 13 c-98 22
-203 8 -299 -40 -50 -26 -140 -104 -140 -123 0 -7 -4 -12 -8 -12 -11 0 -41
-63 -62 -131 -31 -101 -9 -257 47 -337 10 -14 23 -32 28 -40 34 -52 143 -125
213 -143 23 -6 42 -15 43 -20 7 -60 2 -92 -16 -102 -11 -6 -21 -9 -23 -8 -2 2
-15 -2 -31 -8 -61 -26 -87 -125 -47 -183 21 -31 23 -56 6 -68 -23 -17 -90
-168 -105 -238 -3 -12 -8 -32 -11 -44 -3 -13 -7 -61 -9 -108 -2 -47 -5 -87 -6
-90 -1 -3 -1 -12 0 -20 1 -8 -17 -33 -40 -55 -70 -67 -92 -150 -60 -230 17
-45 65 -102 93 -111 18 -5 21 -35 5 -61 -8 -12 -21 -114 -20 -148 5 -97 47
-173 120 -220 35 -22 59 -29 111 -31 37 -2 69 -4 71 -4 2 0 -4 -8 -13 -19 -17
-19 -39 -80 -40 -116 -1 -11 4 -35 11 -54 13 -33 12 -35 -29 -81 -60 -67 -95
-119 -103 -150 -1 -3 -5 -13 -8 -22 -30 -78 -31 -99 -31 -463 -1 -318 1 -342
18 -370 54 -85 114 -124 196 -130 25 -2 47 -4 50 -5 3 -1 10 -1 15 0 21 5 195
5 195 0 0 -3 74 -5 165 -5 91 0 165 2 165 5 0 4 106 4 120 0 3 -1 20 -1 37 0
32 1 33 0 27 -30 -13 -64 40 -110 102 -90 25 9 42 26 66 66 30 49 36 54 68 54
211 0 268 21 331 125 23 38 24 50 27 230 2 104 7 194 11 200 5 5 7 26 5 45 -2
26 6 48 29 85 17 28 35 52 39 53 5 2 8 10 8 18 0 24 25 27 76 9 51 -17 120
-18 142 -2 6 5 12 7 12 3 0 -4 17 2 38 13 43 23 102 81 130 131 11 19 56 93
101 164 77 122 81 132 78 177 -6 68 -36 107 -136 170 -47 30 -90 56 -95 58 -6
2 -13 7 -16 10 -3 4 -39 28 -82 54 -78 48 -116 58 -173 43 -53 -13 -58 -19
-210 -256 -69 -107 -85 -137 -85 -153 0 -26 -18 -29 -42 -7 -18 17 -23 33 -25
88 -1 37 -3 76 -5 87 -2 13 3 19 17 20 87 3 177 70 215 160 29 67 36 191 17
264 -8 30 -13 59 -10 65 2 6 22 23 43 38 52 36 83 98 83 165 -1 62 -20 108
-67 154 l-34 34 -5 120 c-4 66 -11 136 -17 155 -6 19 -13 45 -16 58 -8 39 -65
155 -97 195 -25 33 -28 41 -18 65 37 93 6 165 -84 194 -40 13 -40 14 -40 62 1
46 3 50 30 58 187 57 317 225 316 408 0 36 -2 75 -5 88 -3 12 -8 31 -10 42 -8
34 -39 94 -70 135 -40 52 -43 55 -96 93 -93 66 -228 92 -340 66 l-54 -12 -51
53 c-88 92 -175 133 -299 140 -47 2 -91 -2 -131 -14z m1175 -2720 c0 -10 -7
-24 -15 -31 -8 -7 -15 -18 -15 -25 0 -8 -3 -15 -8 -17 -4 -1 -45 -64 -92 -138
-88 -142 -99 -155 -114 -140 -9 9 8 55 25 70 3 3 23 34 45 70 21 36 42 67 47
68 4 2 7 8 7 13 0 5 21 41 46 79 46 69 74 88 74 51z m130 -88 c0 -9 -6 -24
-13 -32 -7 -9 -55 -83 -107 -164 -51 -81 -97 -150 -103 -154 -5 -3 -13 -1 -19
5 -7 7 19 57 86 162 53 83 96 155 96 160 0 5 8 14 18 19 9 6 13 11 7 11 -5 0
-3 4 5 9 17 12 30 5 30 -16z m110 -128 c-14 -25 -28 -45 -31 -45 -4 0 -9 -8
-13 -17 -3 -10 -14 -30 -23 -45 -10 -15 -43 -65 -73 -112 -33 -52 -61 -86 -71
-86 -10 0 -16 6 -15 13 2 14 75 133 94 152 6 8 12 16 12 19 0 8 89 147 108
169 11 12 19 14 26 7 7 -7 3 -24 -14 -55z"/>
</g>
</svg>
